<svg width="1471" height="435" viewBox="0 0 1471 435" fill="none" xmlns="http://www.w3.org/2000/svg">
<path d="M256.471 174.305C255.778 173.301 254.872 172.465 253.818 171.856C252.765 171.247 251.59 170.88 250.379 170.782H186.862L249.313 63.2617C249.995 62.2147 250.358 60.9904 250.358 59.739C250.358 58.4876 249.995 57.2634 249.313 56.2164C248.644 55.2489 247.757 54.4535 246.725 53.8947C245.693 53.3359 244.544 53.0294 243.373 53H158.379C157.107 52.9997 155.858 53.34 154.76 53.9861C153.663 54.6321 152.756 55.5606 152.134 56.6759L70.9479 228.218C70.3281 229.231 70 230.398 70 231.587C70 232.777 70.3281 233.944 70.9479 234.957C71.4987 235.981 72.3497 236.81 73.3854 237.331C74.421 237.851 75.591 238.039 76.7363 237.867H140.71L95.0144 373.416C94.5085 374.869 94.5377 376.456 95.0967 377.89C95.6557 379.323 96.7075 380.507 98.061 381.227C99.1975 381.784 100.454 382.047 101.717 381.993C103.762 381.927 105.713 381.109 107.2 379.696L256.471 181.657C257.218 180.578 257.619 179.295 257.619 177.981C257.619 176.666 257.218 175.383 256.471 174.305Z" fill="url(#paint0_linear_11_14)"/>
<path d="M470.359 325.92L451.039 306.32C444.319 309.307 437.319 310.8 430.039 310.8C420.146 310.8 410.999 308.28 402.599 303.24C394.199 298.2 387.479 291.387 382.439 282.8C377.399 274.213 374.879 264.787 374.879 254.52L375.159 165.76C375.159 155.867 377.586 146.72 382.439 138.32C387.292 129.733 393.826 122.92 402.039 117.88C410.439 112.653 419.772 110.04 430.039 110.04C439.932 110.04 448.986 112.56 457.199 117.6C465.599 122.453 472.226 129.08 477.079 137.48C482.119 145.88 484.639 155.307 484.639 165.76L484.919 254.52C484.919 259.933 484.172 265.16 482.679 270.2C481.186 275.24 479.226 279.907 476.799 284.2L494.159 301.84C494.906 302.587 494.999 303.24 494.439 303.8L472.319 325.92C471.572 326.48 470.919 326.48 470.359 325.92ZM430.039 276.92C436.386 276.92 441.426 274.587 445.159 269.92C449.079 265.067 451.039 259.933 451.039 254.52L450.759 165.76C450.759 159.787 448.799 154.653 444.879 150.36C440.959 145.88 436.012 143.64 430.039 143.64C423.692 143.64 418.559 145.88 414.639 150.36C410.906 154.84 409.039 159.973 409.039 165.76V254.52C409.039 261.24 411.186 266.653 415.479 270.76C419.959 274.867 424.812 276.92 430.039 276.92ZM560.189 310.8C550.295 310.8 541.149 308.28 532.749 303.24C524.349 298.013 517.629 291.107 512.589 282.52C507.735 273.933 505.309 264.507 505.309 254.24L505.869 114.24C505.869 113.493 506.242 113.12 506.989 113.12H538.349C539.095 113.12 539.469 113.493 539.469 114.24V254.24C539.469 260.587 541.429 266 545.349 270.48C549.455 274.773 554.402 276.92 560.189 276.92C566.162 276.92 571.109 274.773 575.029 270.48C579.135 266 581.189 260.587 581.189 254.24V114.24C581.189 113.493 581.562 113.12 582.309 113.12H613.669C614.415 113.12 614.789 113.493 614.789 114.24L615.349 254.24C615.349 264.693 612.829 274.213 607.789 282.8C602.935 291.387 596.309 298.2 587.909 303.24C579.695 308.28 570.455 310.8 560.189 310.8ZM638.858 308C637.924 308 637.458 307.533 637.458 306.6L637.738 114.24C637.738 113.493 638.111 113.12 638.858 113.12H670.218C670.964 113.12 671.338 113.493 671.338 114.24L671.618 306.6C671.618 307.533 671.244 308 670.498 308H638.858ZM747.767 310.8C737.5 310.8 728.167 308.28 719.767 303.24C711.554 298.013 705.02 291.107 700.167 282.52C695.314 273.933 692.887 264.32 692.887 253.68L693.167 166.32C693.167 156.053 695.5 146.72 700.167 138.32C705.02 129.733 711.554 122.92 719.767 117.88C728.167 112.653 737.5 110.04 747.767 110.04C758.034 110.04 767.274 112.56 775.487 117.6C783.7 122.64 790.234 129.453 795.087 138.04C799.94 146.44 802.367 155.867 802.367 166.32V179.2C802.367 179.947 801.994 180.32 801.247 180.32H769.887C769.14 180.32 768.767 179.947 768.767 179.2V166.32C768.767 160.16 766.714 154.84 762.607 150.36C758.687 145.88 753.74 143.64 747.767 143.64C741.047 143.64 735.914 145.973 732.367 150.64C728.82 155.12 727.047 160.347 727.047 166.32V253.68C727.047 260.587 729.007 266.187 732.927 270.48C737.034 274.773 741.98 276.92 747.767 276.92C753.74 276.92 758.687 274.587 762.607 269.92C766.714 265.067 768.767 259.653 768.767 253.68V240.8C768.767 240.053 769.14 239.68 769.887 239.68H801.527C802.274 239.68 802.647 240.053 802.647 240.8V253.68C802.647 264.32 800.127 273.933 795.087 282.52C790.234 291.107 783.7 298.013 775.487 303.24C767.274 308.28 758.034 310.8 747.767 310.8ZM824.242 308C823.495 308 823.122 307.533 823.122 306.6L823.682 114.52C823.682 113.587 824.055 113.12 824.802 113.12H856.162C856.909 113.12 857.282 113.587 857.282 114.52V180.88L901.242 114.24C901.802 113.493 902.455 113.12 903.202 113.12H935.402C936.149 113.12 936.335 113.493 935.962 114.24L887.522 191.52L941.842 306.88C942.215 307.627 941.749 308 940.442 308H906.282C905.349 308 904.789 307.627 904.602 306.88L866.802 224.56L857.002 239.96V306.6C857.002 307.533 856.629 308 855.882 308H824.242ZM997.334 308C996.401 308 995.934 307.533 995.934 306.6L996.494 114.24C996.494 113.493 996.868 113.12 997.614 113.12H1051.37C1068.55 113.12 1082.08 118.347 1091.97 128.8C1102.05 139.253 1107.09 153.44 1107.09 171.36C1107.09 184.613 1104.48 196.093 1099.25 205.8C1094.03 215.507 1087.21 222.973 1078.81 228.2C1070.41 233.427 1061.27 236.04 1051.37 236.04H1030.09V306.6C1030.09 307.533 1029.63 308 1028.69 308H997.334ZM1030.09 202.16H1051.37C1057.35 202.16 1062.48 199.36 1066.77 193.76C1071.25 187.973 1073.49 180.507 1073.49 171.36C1073.49 164.08 1071.53 158.107 1067.61 153.44C1063.69 148.773 1058.28 146.44 1051.37 146.44L1030.09 146.72V202.16ZM1125.02 308C1124.28 308 1123.9 307.533 1123.9 306.6L1124.46 114.52C1124.46 113.587 1124.84 113.12 1125.58 113.12H1156.94C1157.69 113.12 1158.06 113.587 1158.06 114.52V180.88L1202.02 114.24C1202.58 113.493 1203.24 113.12 1203.98 113.12H1236.18C1236.93 113.12 1237.12 113.493 1236.74 114.24L1188.3 191.52L1242.62 306.88C1243 307.627 1242.53 308 1241.22 308H1207.06C1206.13 308 1205.57 307.627 1205.38 306.88L1167.58 224.56L1157.78 239.96V306.6C1157.78 307.533 1157.41 308 1156.66 308H1125.02ZM1279.05 308C1278.3 308 1277.93 307.533 1277.93 306.6V147H1241.53C1240.6 147 1240.13 146.533 1240.13 145.6L1240.41 114.24C1240.41 113.493 1240.78 113.12 1241.53 113.12H1347.93C1348.86 113.12 1349.33 113.493 1349.33 114.24V145.6C1349.33 146.533 1348.96 147 1348.21 147H1311.53L1311.81 306.6C1311.81 307.533 1311.44 308 1310.69 308H1279.05Z" fill="url(#paint1_linear_11_14)"/>
<defs>
<linearGradient id="paint0_linear_11_14" x1="163.809" y1="53" x2="163.809" y2="382" gradientUnits="userSpaceOnUse">
<stop stop-color="#EE5A24"/>
<stop offset="1" stop-color="#EA2027"/>
</linearGradient>
<linearGradient id="paint1_linear_11_14" x1="859.5" y1="77" x2="859.5" y2="357" gradientUnits="userSpaceOnUse">
<stop stop-color="#EE5A24"/>
<stop offset="1" stop-color="#EA2027"/>
</linearGradient>
</defs>
</svg>
