<svg width="22" height="23" viewBox="0 0 22 23" fill="none" xmlns="http://www.w3.org/2000/svg">
<path d="M8.0076 20.7594V17.5312C8.00758 16.7101 8.67697 16.043 9.50633 16.0375H12.5443C13.3776 16.0375 14.0532 16.7062 14.0532 17.5312V20.7694C14.053 21.4665 14.615 22.0363 15.319 22.0526H17.3443C19.3633 22.0526 21 20.4323 21 18.4335V9.25035C20.9892 8.46403 20.6163 7.72563 19.9873 7.2453L13.0608 1.72137C11.8473 0.759543 10.1223 0.759543 8.90886 1.72137L2.01266 7.25532C1.38132 7.73371 1.00778 8.47333 1 9.26038V18.4335C1 20.4323 2.63671 22.0526 4.6557 22.0526H6.68101C7.40248 22.0526 7.98734 21.4736 7.98734 20.7594" stroke="black" stroke-width="1.5" stroke-linecap="round" stroke-linejoin="round"/>
</svg>
