<svg width="20" height="22" viewBox="0 0 20 22" fill="none" xmlns="http://www.w3.org/2000/svg">
<path d="M6.9934 19.7706V16.5424C6.99339 15.7243 7.6586 15.0597 8.48256 15.0545H11.508C12.3357 15.0545 13.0066 15.7207 13.0066 16.5424V19.7613C13.0066 20.4708 13.5832 21.0475 14.2978 21.0526H16.3619C17.3259 21.0551 18.2513 20.6766 18.9339 20.0007C19.6164 19.3249 20 18.4071 20 17.45V8.27984C20 7.50672 19.6548 6.77338 19.0575 6.27737L12.0452 0.709756C10.8195 -0.264082 9.06881 -0.232623 7.87936 0.784615L1.01791 6.27737C0.392359 6.75876 0.0184761 7.49428 0 8.27984V17.4407C0 19.4355 1.62882 21.0526 3.63808 21.0526H5.65504C5.99913 21.0551 6.32999 20.9211 6.57418 20.6804C6.81838 20.4398 6.95571 20.1123 6.9557 19.7706H6.9934Z" fill="#ED4525"/>
</svg>
