<svg width="19" height="20" viewBox="0 0 19 20" fill="none" xmlns="http://www.w3.org/2000/svg">
<path d="M6.64372 18.7821V15.7152C6.64371 14.9381 7.27566 14.3067 8.05842 14.3018H10.9326C11.7189 14.3018 12.3562 14.9346 12.3562 15.7152V18.7732C12.3562 19.4472 12.904 19.9951 13.5829 20H15.5438C16.4596 20.0023 17.3387 19.6428 17.9871 19.0007C18.6356 18.3586 19 17.4867 19 16.5775V7.86583C19 7.13138 18.672 6.4347 18.1046 5.96349L11.443 0.674267C10.2785 -0.250877 8.61536 -0.220991 7.48538 0.745383L0.967011 5.96349C0.37274 6.42081 0.0175523 7.11955 0 7.86583V16.5686C0 18.4637 1.54738 20 3.45617 20H5.37228C5.69916 20.0023 6.01348 19.875 6.24546 19.6464C6.47745 19.4177 6.60791 19.1066 6.60791 18.7821H6.64372Z" fill="#FF4310"/>
</svg>
