<svg width="20" height="21" viewBox="0 0 20 21" fill="none" xmlns="http://www.w3.org/2000/svg">
<path d="M7.32435 18.8328V15.9194C7.32434 15.1784 7.92846 14.5763 8.67696 14.5713H11.4187C12.1708 14.5713 12.7805 15.1749 12.7805 15.9194V18.8419C12.7803 19.471 13.2875 19.9853 13.9229 20H15.7507C17.5729 20 19.05 18.5376 19.05 16.7337V8.44594C19.0403 7.73629 18.7037 7.06988 18.1361 6.63638L11.8848 1.65104C10.7897 0.782988 9.23289 0.782988 8.13775 1.65104L1.91392 6.64543C1.34415 7.07717 1.00702 7.74468 1 8.45499V16.7337C1 18.5376 2.47713 20 4.29927 20H6.12711C6.77824 20 7.30608 19.4774 7.30608 18.8328" stroke="black" stroke-width="1.5" stroke-linecap="round" stroke-linejoin="round"/>
</svg>
