<svg width="22" height="22" viewBox="0 0 22 22" fill="none" xmlns="http://www.w3.org/2000/svg">
<path fill-rule="evenodd" clip-rule="evenodd" d="M3.21015 5.65442C3.21015 4.3044 4.304 3.21055 5.65402 3.20947H6.76625C7.41154 3.20947 8.0298 2.9533 8.4881 2.49933L9.26525 1.72109C10.2175 0.763432 11.7653 0.759108 12.723 1.71137L12.7241 1.71245L12.7338 1.72109L13.512 2.49933C13.9703 2.95438 14.5886 3.20947 15.2339 3.20947H16.345C17.6951 3.20947 18.79 4.30332 18.79 5.65442V6.76449C18.79 7.40978 19.0451 8.02912 19.5001 8.48742L20.2784 9.26565C21.236 10.2179 21.2414 11.7657 20.2892 12.7234L20.2881 12.7245L20.2784 12.7342L19.5001 13.5124C19.0451 13.9697 18.79 14.5879 18.79 15.2332V16.3454C18.79 17.6955 17.6961 18.7893 16.3461 18.7893H15.2317C14.5864 18.7893 13.9671 19.0455 13.5099 19.5005L12.7316 20.2777C11.7805 21.2353 10.2337 21.2407 9.27606 20.2907C9.27498 20.2896 9.2739 20.2885 9.27282 20.2874L9.26309 20.2777L8.48594 19.5005C8.02872 19.0455 7.40938 18.7904 6.76409 18.7893H5.65402C4.304 18.7893 3.21015 17.6955 3.21015 16.3454V15.231C3.21015 14.5858 2.95398 13.9675 2.49893 13.5103L1.72177 12.732C0.764112 11.7809 0.758708 10.2341 1.70988 9.27646C1.70988 9.27538 1.71097 9.2743 1.71205 9.27322L1.72177 9.26349L2.49893 8.48526C2.95398 8.02696 3.21015 7.4087 3.21015 6.76233V5.65442Z" stroke="black" stroke-width="1.5" stroke-linecap="round" stroke-linejoin="round"/>
<path d="M8.22186 13.778L13.7776 8.22229" stroke="black" stroke-width="1.5" stroke-linecap="round" stroke-linejoin="round"/>
<path d="M13.6954 13.7005H13.7044" stroke="black" stroke-width="2" stroke-linecap="round" stroke-linejoin="round"/>
<path d="M8.29094 8.29608H8.29994" stroke="black" stroke-width="2" stroke-linecap="round" stroke-linejoin="round"/>
</svg>
