<svg width="47" height="44" viewBox="0 0 47 44" fill="none" xmlns="http://www.w3.org/2000/svg">
<path fill-rule="evenodd" clip-rule="evenodd" d="M25.7747 3.59296L30.0745 12.183C30.4959 13.0262 31.3093 13.611 32.2526 13.7463L41.8714 15.1309C44.2479 15.474 45.1936 18.3542 43.4737 20.0046L36.5181 26.6881C35.8345 27.3453 35.5234 28.2901 35.6851 29.218L37.3266 38.6537C37.7308 40.9878 35.2465 42.7687 33.1223 41.6644L24.5252 37.2063C23.6824 36.769 22.673 36.769 21.8277 37.2063L13.2306 41.6644C11.1064 42.7687 8.6221 40.9878 9.02881 38.6537L10.6679 29.218C10.8296 28.2901 10.5184 27.3453 9.83486 26.6881L2.87925 20.0046C1.15933 18.3542 2.10504 15.474 4.48156 15.1309L14.1004 13.7463C15.0436 13.611 15.8595 13.0262 16.2809 12.183L20.5782 3.59296C21.6415 1.46901 24.7114 1.46901 25.7747 3.59296Z" stroke="black" stroke-width="3.5" stroke-linecap="round" stroke-linejoin="round"/>
</svg>
