<svg width="20" height="20" viewBox="0 0 20 20" fill="none" xmlns="http://www.w3.org/2000/svg">
<path d="M7.86537 0.885378C9.03579 -0.293622 10.9465 -0.293622 12.1269 0.876378L12.8572 1.60538C13.1373 1.88538 13.5174 2.04638 13.9176 2.04638H14.9479C16.6085 2.04638 17.959 3.39538 17.959 5.05538V6.08638C17.959 6.48538 18.1191 6.86538 18.3992 7.14538L19.1194 7.86538C19.6897 8.42538 19.9998 9.18538 19.9998 9.98538C20.0098 10.7854 19.6997 11.5464 19.1395 12.1154L18.3992 12.8554C18.1191 13.1354 17.959 13.5154 17.959 13.9164V14.9454C17.959 16.6054 16.6085 17.9564 14.9479 17.9564H13.9176C13.5174 17.9564 13.1373 18.1154 12.8572 18.3954L12.1369 19.1154C11.5467 19.7064 10.7764 19.9954 10.0061 19.9954C9.23586 19.9954 8.46558 19.7064 7.87537 19.1264L7.14511 18.3954C6.865 18.1154 6.48487 17.9564 6.08472 17.9564H5.05435C3.39375 17.9564 2.04326 16.6054 2.04326 14.9454V13.9164C2.04326 13.5154 1.8832 13.1354 1.6031 12.8454L0.882836 12.1354C-0.287588 10.9664 -0.297592 9.05538 0.872832 7.87638L1.6031 7.14538C1.8832 6.86538 2.04326 6.48538 2.04326 6.07538V5.05538C2.04326 3.39538 3.39375 2.04638 5.05435 2.04638H6.08472C6.48487 2.04638 6.865 1.88538 7.14511 1.60538L7.86537 0.885378ZM12.5771 11.6954C12.0869 11.6954 11.6968 12.0864 11.6968 12.5654C11.6968 13.0554 12.0869 13.4454 12.5771 13.4454C13.0572 13.4454 13.4474 13.0554 13.4474 12.5654C13.4474 12.0864 13.0572 11.6954 12.5771 11.6954ZM13.1873 6.80538C12.8472 6.46638 12.297 6.46638 11.9569 6.80538L6.81499 11.9454C6.47486 12.2854 6.47486 12.8454 6.81499 13.1854C6.97504 13.3554 7.19512 13.4454 7.42521 13.4454C7.66529 13.4454 7.88537 13.3554 8.04543 13.1854L13.1873 8.04638C13.5274 7.70638 13.5274 7.14538 13.1873 6.80538ZM7.43521 6.55538C6.95504 6.55538 6.55489 6.94538 6.55489 7.42538C6.55489 7.91638 6.95504 8.30538 7.43521 8.30538C7.91539 8.30538 8.30553 7.91638 8.30553 7.42538C8.30553 6.94538 7.91539 6.55538 7.43521 6.55538Z" fill="#ED4525"/>
</svg>
