<svg width="43" height="40" viewBox="0 0 43 40" fill="none" xmlns="http://www.w3.org/2000/svg">
<path d="M33.5112 24.8825C32.966 25.4109 32.7154 26.1751 32.8396 26.9245L34.7111 37.2817C34.869 38.1596 34.4985 39.0479 33.7638 39.5553C33.0438 40.0815 32.086 40.1447 31.3008 39.7237L21.9772 34.8608C21.653 34.6882 21.2931 34.5956 20.9247 34.5851H20.3542C20.1563 34.6145 19.9626 34.6777 19.7858 34.7745L10.4601 39.6605C9.99907 39.8921 9.477 39.9742 8.96545 39.8921C7.71922 39.6563 6.8877 38.469 7.0919 37.2165L8.96545 26.8593C9.08966 26.1035 8.83915 25.3351 8.29392 24.7983L0.692324 17.4304C0.0565769 16.8136 -0.164461 15.8874 0.126046 15.0516C0.408132 14.218 1.12808 13.6096 1.9975 13.4728L12.46 11.955C13.2557 11.8729 13.9546 11.3887 14.3125 10.673L18.9227 1.22097C19.0321 1.01046 19.1732 0.816787 19.3437 0.652588L19.5332 0.505229C19.6321 0.395763 19.7458 0.305243 19.8721 0.231563L20.1016 0.147359L20.4594 0H21.3457C22.1372 0.0820998 22.834 0.555752 23.1982 1.26307L27.8695 10.673C28.2063 11.3613 28.861 11.8392 29.6167 11.955L40.0792 13.4728C40.9633 13.5991 41.7022 14.2096 41.9948 15.0516C42.2706 15.8958 42.0327 16.822 41.3843 17.4304L33.5112 24.8825Z" fill="#ED4525"/>
</svg>
