<svg width="22" height="20" viewBox="0 0 22 20" fill="none" xmlns="http://www.w3.org/2000/svg">
<path fill-rule="evenodd" clip-rule="evenodd" d="M17.3319 19.0184C19.3568 19.0184 20.9989 17.3773 21 15.3524V15.3503V12.4313C19.6627 12.4313 18.5795 11.3481 18.5784 10.0108C18.5784 8.67459 19.6616 7.59027 20.9989 7.59027L21 4.67135C21.0022 2.64541 19.3622 1.00216 17.3373 1H17.3308H4.66919C2.64324 1 1.00108 2.64108 1 4.66703V7.68432C2.29081 7.63892 3.37297 8.64865 3.41838 9.93946C3.41946 9.96324 3.42054 9.98703 3.42054 10.0108C3.42162 11.3459 2.34162 12.4292 1.00649 12.4313H1V15.3503C0.99892 17.3751 2.64108 19.0184 4.66595 19.0184H17.3319Z" stroke="black" stroke-width="1.5" stroke-linecap="round" stroke-linejoin="round"/>
<path fill-rule="evenodd" clip-rule="evenodd" d="M11.4012 6.74378L12.0671 8.09189C12.132 8.22378 12.2574 8.31567 12.4033 8.33729L13.892 8.55459C14.2606 8.60864 14.4066 9.06054 14.1406 9.31891L13.0639 10.3676C12.9579 10.4703 12.9104 10.6184 12.9342 10.7643L13.1882 12.2454C13.2509 12.6119 12.8671 12.8908 12.5385 12.7178L11.2077 12.0184C11.0769 11.9492 10.9212 11.9492 10.7904 12.0184L9.46064 12.7178C9.13091 12.8908 8.74712 12.6119 8.80983 12.2454L9.06388 10.7643C9.08875 10.6184 9.0401 10.4703 8.93415 10.3676L7.85848 9.31891C7.59253 9.06054 7.73848 8.60864 8.10604 8.55459L9.59469 8.33729C9.74064 8.31567 9.86712 8.22378 9.93199 8.09189L10.5969 6.74378C10.7612 6.41081 11.2369 6.41081 11.4012 6.74378Z" stroke="black" stroke-width="1.5" stroke-linecap="round" stroke-linejoin="round"/>
</svg>
