<svg width="20" height="18" viewBox="0 0 20 18" fill="none" xmlns="http://www.w3.org/2000/svg">
<path d="M15.856 0C18.14 0 19.999 1.84201 19.999 4.10514L20 6.78245C20 6.97864 19.921 7.16889 19.781 7.30761C19.64 7.44732 19.45 7.5256 19.25 7.5256C18.429 7.5256 17.761 8.18749 17.761 9.00099C17.761 9.81449 18.429 10.4764 19.25 10.4764C19.664 10.4764 20 10.8093 20 11.2195V13.8958C20 16.159 18.142 18 15.858 18H4.143C1.859 18 0 16.159 0 13.8958V11.2195C0 10.8093 0.336 10.4764 0.75 10.4764C1.572 10.4764 2.24 9.81449 2.24 9.00099C2.24 8.2083 1.599 7.6118 0.75 7.6118C0.551 7.6118 0.361 7.53352 0.22 7.39381C0.079 7.2541 0 7.06485 0 6.86866L0.002 4.10514C0.002 1.84201 1.86 0 4.144 0H15.856ZM10.002 5.15347C9.718 5.15347 9.464 5.31003 9.337 5.56171L8.608 7.02521L6.982 7.26005C6.701 7.29968 6.471 7.48993 6.382 7.75746C6.294 8.02499 6.365 8.31432 6.569 8.51051L7.748 9.64802L7.47 11.2562C7.422 11.5336 7.535 11.8091 7.765 11.9746C7.895 12.0667 8.046 12.1143 8.199 12.1143C8.316 12.1143 8.434 12.0855 8.542 12.0291L10 11.2701L11.455 12.0271C11.707 12.1608 12.006 12.14 12.235 11.9736C12.466 11.8091 12.579 11.5336 12.531 11.2562L12.252 9.64802L13.431 8.51051C13.636 8.31432 13.707 8.02499 13.618 7.75746C13.53 7.48993 13.3 7.29968 13.022 7.26104L11.393 7.02521L10.664 5.5627C10.539 5.31102 10.285 5.15446 10.002 5.15347Z" fill="#ED4525"/>
</svg>
