<svg width="1080" height="1080" viewBox="0 0 1080 1080" fill="none" xmlns="http://www.w3.org/2000/svg">
<path d="M796.212 421.312C794.295 418.555 791.792 416.257 788.881 414.583C785.971 412.909 782.725 411.901 779.379 411.631H603.885L776.433 116.196C778.317 113.319 779.32 109.955 779.32 106.517C779.32 103.078 778.317 99.7147 776.433 96.8378C774.584 94.1793 772.134 91.9938 769.282 90.4584C766.431 88.923 763.258 88.0808 760.02 88H525.187C521.673 87.999 518.222 88.9343 515.189 90.7095C512.157 92.4847 509.651 95.0358 507.932 98.1003L283.619 569.449C281.907 572.234 281 575.439 281 578.708C281 581.977 281.907 585.183 283.619 587.967C285.141 590.781 287.492 593.058 290.354 594.489C293.215 595.92 296.448 596.434 299.612 595.963H476.368L350.114 968.413C348.716 972.406 348.796 976.768 350.341 980.706C351.886 984.645 354.792 987.898 358.531 989.876C361.671 991.406 365.142 992.129 368.632 991.981C374.283 991.798 379.673 989.553 383.782 985.669L796.212 441.512C798.276 438.548 799.382 435.024 799.382 431.412C799.382 427.8 798.276 424.275 796.212 421.312Z" fill="url(#paint0_linear_19_4)"/>
<defs>
<linearGradient id="paint0_linear_19_4" x1="540.191" y1="88" x2="540.191" y2="992" gradientUnits="userSpaceOnUse">
<stop stop-color="#EE5A24"/>
<stop offset="1" stop-color="#EA2027"/>
</linearGradient>
</defs>
</svg>
