<svg width="519" height="904" viewBox="0 0 519 904" fill="none" xmlns="http://www.w3.org/2000/svg">
<path d="M515.212 333.312C513.295 330.555 510.792 328.257 507.881 326.583C504.971 324.909 501.725 323.901 498.379 323.631H322.885L495.433 28.1962C497.317 25.3193 498.32 21.9555 498.32 18.517C498.32 15.0785 497.317 11.7147 495.433 8.83781C493.584 6.1793 491.134 3.99381 488.282 2.45838C485.431 0.922952 482.258 0.0807524 479.02 7.38729e-07H244.187C240.673 -0.000959523 237.222 0.934268 234.189 2.70948C231.157 4.48469 228.651 7.03579 226.932 10.1003L2.61911 481.449C0.906636 484.234 0 487.439 0 490.708C0 493.977 0.906636 497.183 2.61911 499.967C4.14079 502.781 6.49223 505.058 9.35369 506.489C12.2152 507.92 15.4478 508.434 18.612 507.963H195.368L69.1137 880.413C67.7158 884.406 67.7964 888.768 69.341 892.706C70.8856 896.645 73.7917 899.898 77.5313 901.876C80.6712 903.406 84.1424 904.129 87.6317 903.981C93.2834 903.798 98.6726 901.553 102.782 897.669L515.212 353.512C517.276 350.548 518.382 347.024 518.382 343.412C518.382 339.8 517.276 336.275 515.212 333.312Z" fill="url(#paint0_linear_19_2)"/>
<defs>
<linearGradient id="paint0_linear_19_2" x1="259.191" y1="0" x2="259.191" y2="904" gradientUnits="userSpaceOnUse">
<stop stop-color="#FF4310"/>
<stop offset="1" stop-color="#EA2027"/>
</linearGradient>
</defs>
</svg>
