<svg id="SvgjsSvg1001" width="256" height="256" xmlns="http://www.w3.org/2000/svg" version="1.1" xmlns:xlink="http://www.w3.org/1999/xlink" xmlns:svgjs="http://svgjs.com/svgjs"><defs id="SvgjsDefs1002"></defs><g id="SvgjsG1008"><svg xmlns="http://www.w3.org/2000/svg" viewBox="0 0 48 48" width="256" height="256"><path fill="#54bb6c" d="M24-.002c-13.255 0-24 10.745-24 24 0 7.313 3.275 13.858 8.434 18.26h31.132C44.725 37.856 48 31.312 48 23.998c0-13.254-10.745-24-24-24z" class="color54BB6C svgShape"></path><path fill="#f8d270" d="M30.146 37.17H17.854l1.149-6.836 1.196-7.115h7.602l1.196 7.115z" class="colorF8D270 svgShape"></path><path fill="#fee29c" d="M24.002 8.966c-5.471 0-9.907 4.435-9.907 9.907 0 5.471 4.435 12.993 9.907 12.993 5.471 0 9.907-7.522 9.907-12.993 0-5.472-4.436-9.907-9.907-9.907z" class="colorFEE29C svgShape"></path><path fill="#fee29c" d="M35.747 19.581c-.223 1.949-1.231 3.435-2.243 3.319-1.02-.117-1.657-1.791-1.434-3.74.222-1.939 1.221-3.427 2.241-3.31 1.012.116 1.658 1.791 1.436 3.731zM12.257 19.581c.223 1.949 1.231 3.435 2.242 3.319 1.02-.117 1.657-1.791 1.434-3.74-.222-1.939-1.221-3.427-2.241-3.31-1.011.116-1.657 1.791-1.435 3.731z" class="colorFEE29C svgShape"></path><path fill="#393a58" d="M35.525 14.634v.73c0 .046-.037.083-.083.092-.046.009-.092-.009-.111-.056l-.324-.805c-.028.222-.046.435-.074.657-.083.805-.167 1.628-.305 2.433-.185 1.147-.638 2.239-1.36 3.349-.028.028-.074.046-.111.037-.046-.009-.074-.046-.083-.093a21.119 21.119 0 0 1-.046-.814c-.046-.583-.083-1.193-.148-1.785-.176-1.536-.416-3.164-1.277-4.607-.944-1.582-2.248-1.952-3.876-1.101-3.071 1.582-6.254 1.434-9.455-.463-.37-.213-.62-.213-.99.018-1.249.768-1.934 1.971-2.156 3.784-.194 1.573-.056 3.219.462 5.338.046.176.083.361.13.537.009.046-.009.083-.028.12-.009.009-.019.037-.037.065a.103.103 0 0 1-.093.056.095.095 0 0 1-.083-.046c-1.684-2.655-2.045-5.625-2.359-8.511l-.287.389c-.044.066-.155.048-.176-.037l-.167-.666c-.009-.009-.009-.018-.009-.028 0-.583-.268-4.746 6.235-9.372 1.193-.851 2.637-.981 3.83-1.064.077-.019.135.082.102.148l-.379.731.019.009c2.239-1.055 4.635-.99 7.531.194.079.04.083.172-.028.194l-1.906.287c4.09 1.364 6.415 3.075 7.466 9.298.056.325.111.658.176.982z" class="color393A58 svgShape"></path><path fill="#ed7167" d="M39.683 42.162c-4.2 3.64-9.68 5.84-15.68 5.84s-11.49-2.2-15.69-5.84l.52-4.5c.37-3.3 3.17-5.8 6.49-5.8h3.38c0 .06 0 .13.01.19a5.298 5.298 0 0 0 5.29 5.12c2.85 0 5.17-2.25 5.29-5.07.01-.08.01-.16.01-.24h3.37c3.33 0 6.12 2.5 6.5 5.8l.51 4.5z" class="colorED7167 svgShape"></path><path fill="#de564e" d="M29.262 31.847c-.307 2.645-2.535 4.713-5.26 4.713-2.742 0-4.98-2.093-5.268-4.713h-1.332c.309 3.372 3.149 6.022 6.6 6.022 3.425 0 6.251-2.61 6.589-6.022h-1.329z" class="colorDE564E svgShape"></path></svg></g></svg>