<svg width="41" height="37" viewBox="0 0 41 37" fill="none" xmlns="http://www.w3.org/2000/svg">
<path d="M29.5311 0.5C36.4289 0.5 40.5 4.46919 40.5 11.2636H32.0378V11.3329C28.1104 11.3329 24.9267 14.437 24.9267 18.266C24.9267 22.095 28.1104 25.1991 32.0378 25.1991H40.5V25.8231C40.5 32.5308 36.4289 36.5 29.5311 36.5H11.4689C4.57111 36.5 0.5 32.5308 0.5 25.8231V11.1769C0.5 4.46919 4.57111 0.5 11.4689 0.5H29.5311ZM39.0067 14.2448C39.8314 14.2448 40.5 14.8967 40.5 15.7008V20.7619C40.4904 21.5621 39.8274 22.2085 39.0067 22.2179H32.1978C30.2096 22.2439 28.471 20.9167 28.02 19.0286C27.7942 17.8566 28.1112 16.6471 28.8861 15.7244C29.6611 14.8017 30.8147 14.2601 32.0378 14.2448H39.0067ZM32.9978 16.5847H32.34C31.9362 16.5801 31.5472 16.7333 31.26 17.0101C30.9727 17.2869 30.8111 17.6643 30.8111 18.058C30.8111 18.8841 31.4928 19.5565 32.34 19.566H32.9978C33.8422 19.566 34.5267 18.8986 34.5267 18.0753C34.5267 17.2521 33.8422 16.5847 32.9978 16.5847ZM21.2644 8.28238H9.97556C9.13807 8.28232 8.4564 8.93919 8.44667 9.75566C8.44667 10.5817 9.12831 11.2541 9.97556 11.2636H21.2644C22.1088 11.2636 22.7933 10.5962 22.7933 9.77299C22.7933 8.94975 22.1088 8.28238 21.2644 8.28238Z" fill="#ED4525"/>
</svg>
