<svg width="23" height="20" viewBox="0 0 23 20" fill="none" xmlns="http://www.w3.org/2000/svg">
<path d="M16.1284 0C19.9605 0 22.2222 2.2051 22.2222 5.97978H17.521V6.0183C15.3391 6.0183 13.5704 7.74276 13.5704 9.87001C13.5704 11.9972 15.3391 13.7217 17.521 13.7217H22.2222V14.0684C22.2222 17.7949 19.9605 20 16.1284 20H6.09383C2.26173 20 0 17.7949 0 14.0684V5.93163C0 2.2051 2.26173 0 6.09383 0H16.1284ZM21.3926 7.63601C21.8508 7.63601 22.2222 7.99815 22.2222 8.44487V11.2566C22.2169 11.7012 21.8486 12.0603 21.3926 12.0655H17.6099C16.5053 12.08 15.5394 11.3426 15.2889 10.2937C15.1634 9.64255 15.3396 8.97063 15.7701 8.45802C16.2006 7.94541 16.8415 7.64453 17.521 7.63601H21.3926ZM18.0543 8.93597H17.6889C17.4645 8.93339 17.2485 9.01849 17.0889 9.17226C16.9293 9.32604 16.8395 9.5357 16.8395 9.75445C16.8395 10.2134 17.2182 10.5869 17.6889 10.5922H18.0543C18.5234 10.5922 18.9037 10.2214 18.9037 9.76408C18.9037 9.30673 18.5234 8.93597 18.0543 8.93597ZM11.5358 4.32354H5.2642C4.79893 4.32351 4.42023 4.68844 4.41482 5.14203C4.41482 5.60097 4.7935 5.9745 5.2642 5.97978H11.5358C12.0049 5.97978 12.3852 5.60902 12.3852 5.15166C12.3852 4.6943 12.0049 4.32354 11.5358 4.32354Z" fill="#ED4525"/>
</svg>
