<svg width="41" height="39" viewBox="0 0 41 39" fill="none" xmlns="http://www.w3.org/2000/svg">
<path d="M28.9284 0.5C35.3089 0.5 40.5 5.80956 40.5 12.3378V26.6622C40.5 33.1904 35.3089 38.5 28.9284 38.5C28.1924 38.5 27.5951 37.8888 27.5951 37.1358C27.5951 36.3827 28.1924 35.7716 28.9284 35.7716C33.8387 35.7716 37.8333 31.6862 37.8333 26.6622V15.23H31.2662C29.1098 15.2318 27.3516 17.0289 27.3498 19.2372C27.3516 21.4454 29.1098 23.2425 31.2662 23.2443H33.9951C34.7311 23.2443 35.3284 23.8555 35.3284 24.6086C35.3284 25.3616 34.7311 25.9728 33.9951 25.9728H31.2662C27.6378 25.971 24.6849 22.9497 24.6831 19.2372C24.6849 15.5247 27.6378 12.5034 31.2662 12.5015H37.8333V12.3378C37.8333 7.31384 33.8387 3.22845 28.9284 3.22845H12.0698C8.11244 3.22845 4.79156 5.89869 3.63422 9.55663H21.2093C21.9453 9.55663 22.5427 10.1678 22.5427 10.9209C22.5427 11.6757 21.9453 12.2851 21.2093 12.2851H3.172L3.16667 12.3378V26.6622C3.16667 31.6862 7.15956 35.7716 12.0698 35.7716H20.5516C21.2876 35.7716 21.8849 36.3827 21.8849 37.1358C21.8849 37.8888 21.2876 38.5 20.5516 38.5H12.0698C5.68933 38.5 0.5 33.1904 0.5 26.6622V12.3378C0.5 5.80956 5.68933 0.5 12.0698 0.5H28.9284ZM32.1615 17.75C32.8975 17.75 33.4948 18.3611 33.4948 19.1142C33.4948 19.8672 32.8975 20.4784 32.1615 20.4784H31.5553C30.8193 20.4784 30.222 19.8672 30.222 19.1142C30.222 18.3611 30.8193 17.75 31.5553 17.75H32.1615Z" fill="black"/>
</svg>
